<svg
  xmlns="http://www.w3.org/2000/svg"
  xmlns:xlink="http://www.w3.org/1999/xlink"
  version="1.1"
  x="0px"
  y="0px"
  viewBox="0 0 67 83.75"
  enable-background="new 0 0 67 67"
  xml:space="preserve"
>
  <g>
    <g>
      <path
        d="M56.07742,24.90002c0-1.26001-0.84998-2.39001-2.01996-2.74005l-3.35004-1.13995v-5.84003    c0-7.53998-6.13995-13.67999-13.69-13.67999h-7.04999c-7.52997,0-13.66998,6.14001-13.66998,13.67999v5.84003l-3.32001,1.13    c-1.20001,0.35999-2.04999,1.48999-2.04999,2.75c0,1.57996,1.28998,2.87,2.87,2.87h2.5v27.79999    c0,5.47998,4.46002,9.92999,9.94,9.92999h14.52002c5.48999,0,9.94995-4.46002,9.94995-9.94V27.77002h2.5    C54.78744,27.77002,56.07742,26.47998,56.07742,24.90002z M43.35745,20.72003c-0.82001,1.62-1.64001,4.42999-2.46997,6.04999    c-4.67004-2.39001-10.19-2.39001-14.87006,0c-0.82996-1.62-1.63995-4.42999-2.46997-6.04999    C29.76742,17.54999,37.13748,17.54999,43.35745,20.72003z M21.69748,26.71002l3.54999,5.13v9.25995l-3.54999,5.13V26.71002z     M21.69748,57.25c0.70996-1.98999,1.42999-3.98999,2.14996-5.97998c6.23999,2.23999,13.07001,2.23999,19.29999,0    c0.72003,1.98999,1.44,3.98999,2.16003,5.97998C37.67746,60,29.32742,60,21.69748,57.25z M45.30746,46.22998l-3.54999-5.13    v-9.25995l3.54999-5.13V46.22998z"
      />
    </g>
    <g>
      <path
        d="M11.97219,57.17963c0.63184,0.5752,1.29688,1.13379,1.97656,1.6582l1.22266-1.58203    c-0.63721-0.49219-1.26025-1.01563-1.85254-1.55469L11.97219,57.17963z"
      />
    </g>
    <g>
      <path
        d="M2.15969,40.00677c0.33887,1.63867,0.81006,3.26172,1.40088,4.82324l1.87109-0.70703    c-0.5542-1.46387-0.99561-2.98535-1.31299-4.52051L2.15969,40.00677z"
      />
    </g>
    <g>
      <path
        d="M11.30471,13.32025l-1.47949-1.3457c-1.12451,1.23633-2.16064,2.57031-3.0791,3.9668l1.6709,1.09961    C9.27835,15.73139,10.24954,14.47943,11.30471,13.32025z"
      />
    </g>
    <g>
      <path
        d="M6.147,21.16595l-1.82227-0.82422c-0.68799,1.52246-1.26025,3.11328-1.70068,4.72852l1.92969,0.52539    C4.96633,24.08197,5.50247,22.59174,6.147,21.16595z"
      />
    </g>
    <g>
      <path
        d="M3.50003,33.50677c0-1.09766,0.05957-2.20215,0.17725-3.28418l-1.98828-0.2168    c-0.12549,1.1543-0.18896,2.33203-0.18896,3.49902c-0.00098,0.50977,0.01123,1.0166,0.03467,1.51953l1.99805-0.09375    C3.51028,34.45892,3.49905,33.98529,3.50003,33.50677z"
      />
    </g>
    <g>
      <path
        d="M5.70364,49.37201c0.8291,1.4502,1.78076,2.84668,2.82861,4.15137l1.55957-1.25195    c-0.98291-1.22363-1.875-2.5332-2.65186-3.8916L5.70364,49.37201z"
      />
    </g>
    <g>
      <path
        d="M16.71096,8.63471l-1.12109-1.65625c-0.70996,0.48047-1.40869,0.99609-2.07666,1.53125l1.25098,1.56055    C15.39065,9.5683,16.04544,9.0849,16.71096,8.63471z"
      />
    </g>
    <g>
      <path
        d="M53.48684,8.50971c-0.6709-0.53809-1.36963-1.05273-2.07617-1.53125l-1.12109,1.65625    c0.6626,0.44824,1.31738,0.93164,1.94727,1.43555L53.48684,8.50971z"
      />
    </g>
    <g>
      <path
        d="M65.30666,29.96381l-1.98828,0.21875c0.12109,1.09961,0.18213,2.21777,0.18164,3.32422    c0,0.46387-0.01025,0.9248-0.03174,1.38379l1.99804,0.0918c0.02246-0.48828,0.03369-0.98047,0.03369-1.47559    C65.50051,32.32806,65.43557,31.13568,65.30666,29.96381z"
      />
    </g>
    <g>
      <path
        d="M60.23245,15.90814c-0.9209-1.39551-1.9585-2.72852-3.08301-3.96289l-1.47852,1.34766    c1.05518,1.15723,2.02832,2.4082,2.89258,3.7168L60.23245,15.90814z"
      />
    </g>
    <g>
      <path
        d="M64.36526,25.03021c-0.4414-1.61035-1.01513-3.19922-1.70556-4.72363l-1.82129,0.82617    c0.64697,1.42773,1.18457,2.91699,1.59814,4.42676L64.36526,25.03021z"
      />
    </g>
    <g>
      <path
        d="M56.9302,52.24506l1.56152,1.25c1.04736-1.30859,1.99756-2.70703,2.82373-4.15527l-1.7373-0.99023    C58.80374,49.70697,57.91262,51.01752,56.9302,52.24506z"
      />
    </g>
    <g>
      <path
        d="M61.58206,44.08881l1.87109,0.70508c0.58935-1.5625,1.05908-3.18652,1.39502-4.82617l-1.95898-0.40234    C62.57376,41.10248,62.1343,42.62396,61.58206,44.08881z"
      />
    </g>
    <g>
      <path
        d="M51.82913,57.2558l1.22266,1.58203c0.67627-0.52246,1.34131-1.08008,1.97607-1.6582l-1.3457-1.47852    C53.08645,56.24213,52.46292,56.76556,51.82913,57.2558z"
      />
    </g>
    <g>
      <path
        d="M15.06204,18.15521l-1.52344-1.29688c-0.75391,0.88672-1.45996,1.85938-2.09912,2.8916l1.70117,1.05273    C13.72659,19.85541,14.37307,18.96478,15.06204,18.15521z"
      />
    </g>
    <g>
      <path
        d="M8.41702,26.65912c-0.6084,2.19141-0.91699,4.49609-0.91699,6.84766c0,6.07813,2.14258,11.98828,6.0332,16.6416    l1.53418-1.2832c-3.59033-4.29395-5.56738-9.74902-5.56738-15.3584c0-2.1709,0.28418-4.29492,0.84375-6.3125L8.41702,26.65912z"
      />
    </g>
    <g>
      <path
        d="M51.9385,18.15521c0.68945,0.81055,1.33594,1.70117,1.9209,2.64746l1.70117-1.05273    c-0.6377-1.03125-1.34424-2.00391-2.09863-2.8916L51.9385,18.15521z"
      />
    </g>
    <g>
      <path
        d="M53.46731,50.14838c3.89014-4.65332,6.03271-10.56348,6.03271-16.6416c0-2.35352-0.30811-4.65723-0.9165-6.84766    l-1.92676,0.53516c0.55957,2.0166,0.84326,4.13965,0.84326,6.3125c0,5.61035-1.97705,11.06445-5.56689,15.3584L53.46731,50.14838z    "
      />
    </g>
  </g>
</svg>
